<svg width="89" height="18" viewBox="0 0 89 18" fill="none" xmlns="http://www.w3.org/2000/svg">
<path fill-rule="evenodd" clip-rule="evenodd" d="M13.6531 15.0377C12.6126 15.658 11.498 16.3225 10.5163 16.9065C10.3541 17.0029 9.94608 17.2174 9.36972 17.2174C8.79336 17.2174 8.40677 17.0128 8.2247 16.9065C5.87919 15.5371 2.81875 13.7029 1.77722 13.0697C0.735687 12.4366 0 11.9195 0 10.7251C0.0039711 9.98713 0.00806618 2.32572 0.00806618 1.28138C0.00806618 0.237035 0.963146 -0.391504 2.1097 0.281007C3.25626 0.953517 9.36885 4.60317 9.36885 4.60317C9.36885 4.60317 15.6093 0.877723 16.6283 0.281007C17.7993 -0.404704 18.7299 0.256629 18.7299 1.27304C18.7299 1.76366 18.7315 3.70927 18.7332 5.72324C18.735 7.8816 18.7368 10.1185 18.7368 10.7271C18.7368 11.9036 18.0406 12.4305 16.9594 13.0697C16.3373 13.4376 15.0633 14.197 13.6531 15.0377ZM31.834 12.6704H31.2573C28.8161 12.6704 28.2279 11.1853 28.2279 9.65825V1.94585C28.2279 1.62175 28.1123 1.34395 27.9042 1.11244C27.673 0.904092 27.3956 0.788341 27.0719 0.788341C26.7483 0.788341 26.4709 0.904092 26.2397 1.11244C26.0316 1.34395 25.916 1.62175 25.916 1.94585V10.0055C25.916 13.5997 28.0297 14.9854 31.0959 14.9854H31.4409C31.834 14.9854 32.1807 14.8928 32.4582 14.6844C32.7587 14.4761 32.8974 14.1751 32.8974 13.8279C32.8974 13.5038 32.8049 13.226 32.5969 13.0176C32.4119 12.7861 32.1345 12.6704 31.834 12.6704ZM69.1446 12.6704H69.7212C70.0218 12.6704 70.2992 12.7861 70.4842 13.0176C70.6922 13.226 70.7847 13.5038 70.7847 13.8279C70.7847 14.1751 70.646 14.4761 70.3454 14.6844C70.068 14.8928 69.7212 14.9854 69.3282 14.9854H68.9832C65.917 14.9854 63.8033 13.5997 63.8033 10.0055V1.94585C63.8033 1.62175 63.9189 1.34395 64.127 1.11244C64.3582 0.904092 64.6356 0.788341 64.9592 0.788341C65.2829 0.788341 65.5603 0.904092 65.7915 1.11244C65.9996 1.34395 66.1152 1.62175 66.1152 1.94585V9.65825C66.1152 11.1853 66.7034 12.6704 69.1446 12.6704ZM86.7575 5.74249C87.4279 6.15919 87.9828 6.7611 88.3758 7.5019C88.792 8.24271 88.9769 9.07612 89 10.0021C89 10.9281 88.7688 11.7847 88.3296 12.5255C87.9134 13.2663 87.3355 13.8682 86.5957 14.3081C85.879 14.7479 85.0236 14.9563 84.0989 14.9563C83.1741 14.9563 82.3418 14.7248 81.602 14.3081C80.8622 13.8682 80.2612 13.2663 79.845 12.5255C79.4289 11.7847 79.2208 10.9281 79.1977 10.0021V1.969C79.1977 1.62175 79.3133 1.3208 79.5214 1.11244C79.7757 0.904092 80.0531 0.788341 80.3768 0.788341C80.7004 0.788341 81.001 0.857791 81.209 1.08929C81.4171 1.3208 81.5327 1.5986 81.5327 1.94585V6.11289C81.8101 5.88139 82.1338 5.67304 82.4574 5.51098C83.0354 5.23318 83.7058 5.07113 84.3994 5.07113C85.2779 5.07113 86.0639 5.30263 86.7575 5.74249ZM85.4166 12.4329C85.8096 12.2014 86.1102 11.8541 86.3414 11.4374C86.5957 11.0207 86.7113 10.5346 86.6881 10.0021C86.6881 9.46967 86.5726 8.98352 86.3414 8.56681C86.1102 8.15011 85.8096 7.82601 85.4166 7.5945C85.0236 7.33985 84.5844 7.2241 84.0757 7.2241C83.5671 7.2241 83.151 7.33985 82.7349 7.5945C82.3418 7.82601 82.0413 8.15011 81.8101 8.56681C81.5789 8.98352 81.4633 9.46967 81.4633 10.0021C81.4633 10.5346 81.5789 11.0207 81.8101 11.4374C82.0413 11.8541 82.3418 12.1782 82.7349 12.4329C83.1279 12.6644 83.5902 12.7802 84.0757 12.7802C84.5844 12.7802 85.0236 12.6644 85.4166 12.4329ZM73.8341 5.46475C74.0884 5.2564 74.3658 5.14065 74.6895 5.14065C75.0363 5.14065 75.3137 5.2564 75.5449 5.46475C75.753 5.69625 75.8686 5.97405 75.8686 6.32131V13.8048C75.8686 14.1289 75.753 14.4067 75.5449 14.6382C75.3137 14.8697 75.0363 14.9854 74.6895 14.9854C74.3658 14.9854 74.0884 14.8697 73.8572 14.6613C73.626 14.4067 73.5105 14.1289 73.5105 13.8048V6.32131C73.5105 5.97405 73.626 5.6731 73.8341 5.46475ZM74.6895 0.996794C74.2965 0.996794 73.9729 1.1357 73.6723 1.43665C73.3949 1.71445 73.2562 2.03855 73.2562 2.43211C73.2562 2.82566 73.3949 3.14977 73.6723 3.45072C73.9497 3.72852 74.2965 3.86742 74.6664 3.86742C75.0594 3.86742 75.3831 3.72852 75.6605 3.45072C75.938 3.17292 76.0998 2.82566 76.0998 2.43211C76.0998 2.03855 75.9611 1.71445 75.6836 1.43665C75.4293 1.15885 75.0826 0.996794 74.6895 0.996794ZM58.7624 5.69634C58.092 5.27964 57.2828 5.07129 56.3581 5.07129C55.4334 5.07129 54.6011 5.27964 53.8613 5.71949C53.1446 6.1362 52.5666 6.71495 52.1505 7.47891C51.7575 8.21972 51.5494 9.07628 51.5494 10.0254C51.5494 10.9746 51.7575 11.8312 52.1967 12.5951C52.636 13.3359 53.2371 13.9147 54 14.3545C54.7629 14.7712 55.6414 14.9796 56.6124 14.9796C57.1441 14.9796 57.7221 14.887 58.3001 14.6786C58.9011 14.4703 59.4098 14.2156 59.8028 13.8915C60.1496 13.6369 60.2189 13.3128 60.1958 13.1044C60.1727 12.8266 60.034 12.5488 59.7797 12.3173C59.5947 12.1553 59.3635 12.0627 59.1092 12.0627H59.063C58.8087 12.0627 58.5544 12.1553 58.3463 12.3173C58.1614 12.4562 57.8839 12.5951 57.5603 12.7109C57.2366 12.8266 56.9361 12.8729 56.6124 12.8729C55.8495 12.8729 55.2022 12.6646 54.6936 12.2247C54.2774 11.8775 54 11.4376 53.8382 10.9283H59.7334C60.034 10.9283 60.2883 10.8357 60.5195 10.6273C60.7275 10.419 60.82 10.1643 60.82 9.86338C60.82 8.93738 60.635 8.10397 60.2883 7.40946C59.9646 6.6918 59.4329 6.11305 58.7624 5.69634ZM53.8613 8.93738C54 8.47437 54.2543 8.08082 54.6011 7.75671C55.0403 7.36316 55.6183 7.15481 56.3581 7.15481C57.0285 7.15481 57.5371 7.34001 57.9071 7.75671C58.2307 8.08082 58.4388 8.47437 58.5544 8.93738H53.8613ZM48.6679 5.1246C48.8288 5.1246 49.0128 5.17175 49.1737 5.24248C49.4496 5.38394 49.6335 5.59612 49.7484 5.83189C49.8404 6.09123 49.8174 6.39772 49.7024 6.65706L46.2081 14.2251C45.9323 14.8381 45.4725 14.9795 45.1506 14.9795C44.8288 14.9795 44.369 14.8616 44.0702 14.2486L40.5759 6.68064C40.4379 6.39772 40.4379 6.1148 40.5299 5.85546C40.6448 5.59612 40.8517 5.38394 41.1276 5.24248C41.2885 5.17175 41.4494 5.1246 41.6103 5.1246C41.7023 5.1246 41.8172 5.14817 41.9322 5.19533C42.2081 5.28963 42.415 5.47824 42.5529 5.73758L45.1276 11.4431L47.6794 5.73758C47.8403 5.45467 48.0472 5.26606 48.3231 5.17175C48.438 5.14817 48.553 5.1246 48.6679 5.1246ZM36.8512 5.14065C36.5275 5.14065 36.2501 5.2564 35.9958 5.46475C35.7877 5.6731 35.6721 5.97405 35.6721 6.32131V13.8048C35.6721 14.1289 35.7877 14.4067 36.0189 14.6613C36.2501 14.8697 36.5275 14.9854 36.8512 14.9854C37.198 14.9854 37.4754 14.8697 37.7066 14.6382C37.9146 14.4067 38.0302 14.1289 38.0302 13.8048V6.32131C38.0302 5.97405 37.9146 5.69625 37.7066 5.46475C37.4754 5.2564 37.198 5.14065 36.8512 5.14065ZM35.8339 1.43665C36.1345 1.1357 36.4581 0.996794 36.8511 0.996794C37.2442 0.996794 37.5909 1.15885 37.8452 1.43665C38.1227 1.71445 38.2614 2.03855 38.2614 2.43211C38.2614 2.82566 38.0996 3.17292 37.8221 3.45072C37.5447 3.72852 37.221 3.86742 36.828 3.86742C36.4581 3.86742 36.1114 3.72852 35.8339 3.45072C35.5565 3.14977 35.4178 2.82566 35.4178 2.43211C35.4178 2.03855 35.5565 1.71445 35.8339 1.43665Z" fill="#898B8C"/>
</svg>
